<?xml version="1.0" standalone="no"?>
<!DOCTYPE svg PUBLIC "-//W3C//DTD SVG 20010904//EN"
 "http://www.w3.org/TR/2001/REC-SVG-20010904/DTD/svg10.dtd">
<svg version="1.0" xmlns="http://www.w3.org/2000/svg"
 width="600.000000pt" height="600.000000pt" viewBox="0 0 600.000000 600.000000"
 preserveAspectRatio="xMidYMid meet">
<metadata>
Created by potrace 1.11, written by Peter Selinger 2001-2013
</metadata>
<g transform="translate(0.000000,600.000000) scale(0.100000,-0.100000)"
fill="#000000" stroke="none">
<path d="M4000 5665 c0 -184 -3 -335 -7 -335 -5 0 -29 7 -54 14 -175 53 -420
83 -784 96 -273 9 -1855 14 -1855 5 0 -2 24 -34 52 -70 100 -124 167 -263 193
-400 47 -245 102 -1955 91 -2850 -6 -515 -14 -719 -41 -1010 -18 -183 -39
-284 -91 -421 -19 -53 -34 -98 -31 -100 2 -2 254 -3 560 -2 l556 3 -50 90
c-154 273 -174 470 -186 1820 -4 545 -3 737 6 792 24 138 86 229 190 277 40
18 65 21 186 21 133 0 143 -1 192 -27 98 -52 124 -109 148 -331 37 -340 48
-432 75 -598 142 -863 374 -1641 592 -1986 l40 -63 109 0 109 0 0 -295 0 -295
1000 0 1000 0 0 3000 0 3000 -1000 0 -1000 0 0 -335z m-835 -565 c185 -36 329
-130 388 -250 27 -56 57 -200 57 -272 0 -70 -30 -192 -66 -265 -82 -170 -261
-298 -472 -339 -88 -17 -329 -19 -404 -3 -127 27 -253 130 -282 230 -35 120
-47 399 -26 579 29 241 93 318 280 339 129 15 407 5 525 -19z m834 -2142 l-1
-973 -35 75 c-53 113 -145 358 -191 510 -87 285 -140 551 -172 865 -28 271
-32 247 43 279 76 32 233 124 302 177 28 21 51 39 53 39 1 0 2 -438 1 -972z"/>
</g>
</svg>
